HIERARCHY
ROOT Hips
{
	OFFSET -366.576721 -553.763367 89.060974
	CHANNELS 6 Xposition Yposition Zposition Zrotation Yrotation Xrotation
	JOINT Spine
	{
		OFFSET 0.000000 2.080078 8.814247
		CHANNELS 6 Xposition Yposition Zposition Zrotation Yrotation Xrotation
		JOINT Spine1
		{
			OFFSET 0.000000 0.000000 8.844139
			CHANNELS 6 Xposition Yposition Zposition Zrotation Yrotation Xrotation
			JOINT Spine2
			{
				OFFSET 0.000000 0.000000 11.682266
				CHANNELS 6 Xposition Yposition Zposition Zrotation Yrotation Xrotation
				JOINT Spine3
				{
					OFFSET 0.000000 0.000000 11.746704
					CHANNELS 6 Xposition Yposition Zposition Zrotation Yrotation Xrotation
					JOINT Neck
					{
						OFFSET 0.000000 0.000000 17.658264
						CHANNELS 6 Xposition Yposition Zposition Zrotation Yrotation Xrotation
						JOINT Neck1
						{
							OFFSET 0.000000 0.000000 5.101517
							CHANNELS 6 Xposition Yposition Zposition Zrotation Yrotation Xrotation
							JOINT Head
							{
								OFFSET 0.000000 0.000000 5.101517
								CHANNELS 6 Xposition Yposition Zposition Zrotation Yrotation Xrotation
								JOINT HeadEnd
								{
									OFFSET 0.000000 0.000000 11.655090
									CHANNELS 6 Xposition Yposition Zposition Zrotation Yrotation Xrotation
									End Site
									{
										OFFSET 0.000000 0.000000 0.100006
									}
								}
							}
						}
					}
					JOINT RightShoulder
					{
						OFFSET -2.625397 0.000000 11.175217
						CHANNELS 6 Xposition Yposition Zposition Zrotation Yrotation Xrotation
						JOINT RightArm
						{
							OFFSET 0.000000 0.000000 10.434708
							CHANNELS 6 Xposition Yposition Zposition Zrotation Yrotation Xrotation
							JOINT RightForeArm
							{
								OFFSET 0.000000 0.000000 29.628418
								CHANNELS 6 Xposition Yposition Zposition Zrotation Yrotation Xrotation
								JOINT RightHand
								{
									OFFSET 0.000000 0.000000 22.857605
									CHANNELS 6 Xposition Yposition Zposition Zrotation Yrotation Xrotation
									JOINT RightHandThumb1
									{
										OFFSET -2.867310 -2.944275 3.959564
										CHANNELS 6 Xposition Yposition Zposition Zrotation Yrotation Xrotation
										JOINT RightHandThumb2
										{
											OFFSET 0.000000 0.000000 3.350403
											CHANNELS 6 Xposition Yposition Zposition Zrotation Yrotation Xrotation
											JOINT RightHandThumb3
											{
												OFFSET 0.000000 0.000000 3.756516
												CHANNELS 6 Xposition Yposition Zposition Zrotation Yrotation Xrotation
												JOINT RightHandThumb4
												{
													OFFSET 0.000000 0.000000 3.147339
													CHANNELS 6 Xposition Yposition Zposition Zrotation Yrotation Xrotation
													End Site
													{
														OFFSET 0.000000 0.000000 0.100006
													}
												}
											}
										}
									}
									JOINT RightHandIndex1
									{
										OFFSET -0.086761 -2.345276 10.030899
										CHANNELS 6 Xposition Yposition Zposition Zrotation Yrotation Xrotation
										JOINT RightHandIndex2
										{
											OFFSET 0.000000 0.000000 4.061096
											CHANNELS 6 Xposition Yposition Zposition Zrotation Yrotation Xrotation
											JOINT RightHandIndex3
											{
												OFFSET 0.000000 0.000000 3.248871
												CHANNELS 6 Xposition Yposition Zposition Zrotation Yrotation Xrotation
												JOINT RightHandIndex4
												{
													OFFSET 0.000000 0.000000 2.639709
													CHANNELS 6 Xposition Yposition Zposition Zrotation Yrotation Xrotation
													End Site
													{
														OFFSET 0.000000 0.000000 0.100006
													}
												}
											}
										}
									}
									JOINT RightHandMiddle1
									{
										OFFSET 0.104095 -0.006775 9.502945
										CHANNELS 6 Xposition Yposition Zposition Zrotation Yrotation Xrotation
										JOINT RightHandMiddle2
										{
											OFFSET 0.000000 0.000000 4.568726
											CHANNELS 6 Xposition Yposition Zposition Zrotation Yrotation Xrotation
											JOINT RightHandMiddle3
											{
												OFFSET 0.000000 0.000000 3.654984
												CHANNELS 6 Xposition Yposition Zposition Zrotation Yrotation Xrotation
												JOINT RightHandMiddle4
												{
													OFFSET 0.000000 0.000000 2.741241
													CHANNELS 6 Xposition Yposition Zposition Zrotation Yrotation Xrotation
													End Site
													{
														OFFSET 0.000000 0.000000 0.100006
													}
												}
											}
										}
									}
									JOINT RightHandRing1
									{
										OFFSET 0.086761 2.267456 8.921707
										CHANNELS 6 Xposition Yposition Zposition Zrotation Yrotation Xrotation
										JOINT RightHandRing2
										{
											OFFSET 0.000000 0.000000 4.061096
											CHANNELS 6 Xposition Yposition Zposition Zrotation Yrotation Xrotation
											JOINT RightHandRing3
											{
												OFFSET 0.000000 0.000000 3.654984
												CHANNELS 6 Xposition Yposition Zposition Zrotation Yrotation Xrotation
												JOINT RightHandRing4
												{
													OFFSET 0.000000 0.000000 2.741241
													CHANNELS 6 Xposition Yposition Zposition Zrotation Yrotation Xrotation
													End Site
													{
														OFFSET 0.000000 0.000000 0.100006
													}
												}
											}
										}
									}
									JOINT RightHandPinky1
									{
										OFFSET -0.173492 4.467224 7.976990
										CHANNELS 6 Xposition Yposition Zposition Zrotation Yrotation Xrotation
										JOINT RightHandPinky2
										{
											OFFSET 0.000000 0.000000 3.350403
											CHANNELS 6 Xposition Yposition Zposition Zrotation Yrotation Xrotation
											JOINT RightHandPinky3
											{
												OFFSET 0.000000 0.000000 2.842758
												CHANNELS 6 Xposition Yposition Zposition Zrotation Yrotation Xrotation
												JOINT RightHandPinky4
												{
													OFFSET 0.000000 0.000000 2.639709
													CHANNELS 6 Xposition Yposition Zposition Zrotation Yrotation Xrotation
													End Site
													{
														OFFSET 0.000000 0.000000 0.100006
													}
												}
											}
										}
									}
									JOINT RightForeArmEnd
									{
										OFFSET 0.000000 0.000000 0.000000
										CHANNELS 6 Xposition Yposition Zposition Zrotation Yrotation Xrotation
										End Site
										{
											OFFSET 0.000000 0.000000 0.100006
										}
									}
								}
								JOINT RightArmEnd
								{
									OFFSET 0.000000 0.000000 0.000000
									CHANNELS 6 Xposition Yposition Zposition Zrotation Yrotation Xrotation
									End Site
									{
										OFFSET 0.000000 0.000000 0.100006
									}
								}
							}
						}
					}
					JOINT LeftShoulder
					{
						OFFSET 2.625397 0.000000 11.175217
						CHANNELS 6 Xposition Yposition Zposition Zrotation Yrotation Xrotation
						JOINT LeftArm
						{
							OFFSET 0.000000 0.000000 10.813629
							CHANNELS 6 Xposition Yposition Zposition Zrotation Yrotation Xrotation
							JOINT LeftForeArm
							{
								OFFSET 0.000000 0.000000 28.724777
								CHANNELS 6 Xposition Yposition Zposition Zrotation Yrotation Xrotation
								JOINT LeftHand
								{
									OFFSET 0.644379 0.328857 25.716171
									CHANNELS 6 Xposition Yposition Zposition Zrotation Yrotation Xrotation
									JOINT LeftHandThumb1
									{
										OFFSET 2.867310 -2.944275 3.959564
										CHANNELS 6 Xposition Yposition Zposition Zrotation Yrotation Xrotation
										JOINT LeftHandThumb2
										{
											OFFSET 0.000000 0.000000 3.350403
											CHANNELS 6 Xposition Yposition Zposition Zrotation Yrotation Xrotation
											JOINT LeftHandThumb3
											{
												OFFSET 0.000000 0.000000 3.756516
												CHANNELS 6 Xposition Yposition Zposition Zrotation Yrotation Xrotation
												JOINT LeftHandThumb4
												{
													OFFSET 0.000000 0.000000 3.100006
													CHANNELS 6 Xposition Yposition Zposition Zrotation Yrotation Xrotation
													End Site
													{
														OFFSET 0.000000 0.000000 0.100006
													}
												}
											}
										}
									}
									JOINT LeftHandIndex1
									{
										OFFSET 0.086761 -2.345276 10.030899
										CHANNELS 6 Xposition Yposition Zposition Zrotation Yrotation Xrotation
										JOINT LeftHandIndex2
										{
											OFFSET 0.000000 0.000000 4.061096
											CHANNELS 6 Xposition Yposition Zposition Zrotation Yrotation Xrotation
											JOINT LeftHandIndex3
											{
												OFFSET 0.000000 0.000000 3.248871
												CHANNELS 6 Xposition Yposition Zposition Zrotation Yrotation Xrotation
												JOINT LeftHandIndex4
												{
													OFFSET 0.000000 0.000000 2.639709
													CHANNELS 6 Xposition Yposition Zposition Zrotation Yrotation Xrotation
													End Site
													{
														OFFSET 0.000000 0.000000 0.100006
													}
												}
											}
										}
									}
									JOINT LeftHandMiddle1
									{
										OFFSET -0.104095 -0.006775 9.502945
										CHANNELS 6 Xposition Yposition Zposition Zrotation Yrotation Xrotation
										JOINT LeftHandMiddle2
										{
											OFFSET 0.000000 0.000000 4.568726
											CHANNELS 6 Xposition Yposition Zposition Zrotation Yrotation Xrotation
											JOINT LeftHandMiddle3
											{
												OFFSET 0.000000 0.000000 3.654984
												CHANNELS 6 Xposition Yposition Zposition Zrotation Yrotation Xrotation
												JOINT LeftHandMiddle4
												{
													OFFSET 0.000000 0.000000 2.741241
													CHANNELS 6 Xposition Yposition Zposition Zrotation Yrotation Xrotation
													End Site
													{
														OFFSET 0.000000 0.000000 0.100006
													}
												}
											}
										}
									}
									JOINT LeftHandRing1
									{
										OFFSET -0.086761 2.267456 8.921707
										CHANNELS 6 Xposition Yposition Zposition Zrotation Yrotation Xrotation
										JOINT LeftHandRing2
										{
											OFFSET 0.000000 0.000000 4.061096
											CHANNELS 6 Xposition Yposition Zposition Zrotation Yrotation Xrotation
											JOINT LeftHandRing3
											{
												OFFSET 0.000000 0.000000 3.654984
												CHANNELS 6 Xposition Yposition Zposition Zrotation Yrotation Xrotation
												JOINT LeftHandRing4
												{
													OFFSET 0.000000 0.000000 2.741241
													CHANNELS 6 Xposition Yposition Zposition Zrotation Yrotation Xrotation
													End Site
													{
														OFFSET 0.000000 0.000000 0.100006
													}
												}
											}
										}
									}
									JOINT LeftHandPinky1
									{
										OFFSET 0.173492 4.467224 7.976990
										CHANNELS 6 Xposition Yposition Zposition Zrotation Yrotation Xrotation
										JOINT LeftHandPinky2
										{
											OFFSET 0.000000 0.000000 3.350403
											CHANNELS 6 Xposition Yposition Zposition Zrotation Yrotation Xrotation
											JOINT LeftHandPinky3
											{
												OFFSET 0.000000 0.000000 2.842758
												CHANNELS 6 Xposition Yposition Zposition Zrotation Yrotation Xrotation
												JOINT LeftHandPinky4
												{
													OFFSET 0.000000 0.000000 2.639709
													CHANNELS 6 Xposition Yposition Zposition Zrotation Yrotation Xrotation
													End Site
													{
														OFFSET 0.000000 0.000000 0.100006
													}
												}
											}
										}
									}
									JOINT LeftForeArmEnd
									{
										OFFSET 0.000000 0.000000 0.000000
										CHANNELS 6 Xposition Yposition Zposition Zrotation Yrotation Xrotation
										End Site
										{
											OFFSET 0.000000 0.000000 0.100006
										}
									}
								}
								JOINT LeftArmEnd
								{
									OFFSET 0.000000 0.000000 0.000000
									CHANNELS 6 Xposition Yposition Zposition Zrotation Yrotation Xrotation
									End Site
									{
										OFFSET 0.000000 0.000000 0.100006
									}
								}
							}
						}
					}
				}
			}
		}
	}
	JOINT RightUpLeg
	{
		OFFSET -11.289948 0.000000 0.000000
		CHANNELS 6 Xposition Yposition Zposition Zrotation Yrotation Xrotation
		JOINT RightLeg
		{
			OFFSET 0.000000 0.000000 -38.200321
			CHANNELS 6 Xposition Yposition Zposition Zrotation Yrotation Xrotation
			JOINT RightFoot
			{
				OFFSET 0.000000 0.000000 -39.900856
				CHANNELS 6 Xposition Yposition Zposition Zrotation Yrotation Xrotation
				JOINT RightToeBase
				{
					OFFSET 0.000000 -15.261658 0.000001
					CHANNELS 6 Xposition Yposition Zposition Zrotation Yrotation Xrotation
					JOINT RightToeBaseEnd
					{
						OFFSET 0.000000 -7.370728 0.000001
						CHANNELS 6 Xposition Yposition Zposition Zrotation Yrotation Xrotation
						End Site
						{
							OFFSET 0.000000 0.000000 0.100000
						}
					}
				}
				JOINT RightLegEnd
				{
					OFFSET 0.000000 0.000000 0.000000
					CHANNELS 6 Xposition Yposition Zposition Zrotation Yrotation Xrotation
					End Site
					{
						OFFSET 0.000000 0.000000 0.100000
					}
				}
			}
			JOINT RightUpLegEnd
			{
				OFFSET 0.000000 0.000000 0.000000
				CHANNELS 6 Xposition Yposition Zposition Zrotation Yrotation Xrotation
				End Site
				{
					OFFSET 0.000000 0.000000 0.099998
				}
			}
		}
	}
	JOINT LeftUpLeg
	{
		OFFSET 11.315674 0.000000 0.000000
		CHANNELS 6 Xposition Yposition Zposition Zrotation Yrotation Xrotation
		JOINT LeftLeg
		{
			OFFSET 0.000000 0.000000 -38.200321
			CHANNELS 6 Xposition Yposition Zposition Zrotation Yrotation Xrotation
			JOINT LeftFoot
			{
				OFFSET 0.000000 0.000000 -39.900856
				CHANNELS 6 Xposition Yposition Zposition Zrotation Yrotation Xrotation
				JOINT LeftToeBase
				{
					OFFSET 0.000000 -15.261658 0.000001
					CHANNELS 6 Xposition Yposition Zposition Zrotation Yrotation Xrotation
					JOINT LeftToeBaseEnd
					{
						OFFSET 0.000000 -7.539978 0.000001
						CHANNELS 6 Xposition Yposition Zposition Zrotation Yrotation Xrotation
						End Site
						{
							OFFSET 0.000000 0.000000 0.100000
						}
					}
				}
				JOINT LeftLegEnd
				{
					OFFSET 0.000000 0.000000 0.000000
					CHANNELS 6 Xposition Yposition Zposition Zrotation Yrotation Xrotation
					End Site
					{
						OFFSET 0.000000 0.000000 0.100000
					}
				}
			}
			JOINT LeftUpLegEnd
			{
				OFFSET 0.000000 0.000000 0.000000
				CHANNELS 6 Xposition Yposition Zposition Zrotation Yrotation Xrotation
				End Site
				{
					OFFSET 0.000000 0.000000 0.099998
				}
			}
		}
	}
}
MOTION
Frames: 2
Frame Time: 0.016667
-10.789093 -21.071594 85.508865 3.952155 5.625585 -14.938025 -0.000045 2.080013 8.814217 0.021951 -4.265885 6.945281 -0.000034 -0.000066 8.844144 -0.117318 -0.226286 2.156692 0.000011 0.000001 11.682259 -0.635101 -2.393910 6.536398 0.000004 0.000019 11.746700 0.632068 -3.585587 5.421414 -0.000023 -0.000050 17.658291 -3.636569 7.596676 7.347236 -0.000032 0.000009 5.101534 -6.531279 4.115612 -2.024349 -0.000073 -0.000064 5.101537 -1.560725 0.643961 -21.971520 -0.000034 -0.000060 11.655125 -0.000000 -0.000000 0.000001 -2.625397 0.000008 11.175147 9.558934 -91.523640 -0.375399 0.000000 -0.000004 10.434721 11.313542 -41.622702 -2.716105 -0.000038 0.000015 29.628424 37.861771 -0.869298 27.679304 0.000000 0.000053 22.857567 -13.053813 -17.740638 -12.614437 -2.867275 -2.944321 3.959534 31.586719 -17.619223 50.974600 -0.000027 -0.000053 3.350464 -13.456773 8.731324 -24.185232 0.000000 -0.000053 3.756554 -8.945639 6.680274 -16.547363 -0.000044 0.000001 3.147343 0.000001 -0.000001 0.000001 -0.086773 -2.345277 10.030910 -11.887337 -16.128797 5.730856 -0.000039 0.000023 4.061079 0.325380 -11.824472 1.686059 -0.000003 -0.000007 3.248899 -0.174619 -11.824478 1.686068 -0.000001 0.000002 2.639717 0.000000 -0.000000 -0.000001 0.104073 -0.006770 9.502950 -6.261587 -14.624897 1.068338 -0.000032 -0.000025 4.568742 0.456296 -10.411072 0.550540 -0.000001 -0.000004 3.654994 -0.044457 -10.411095 0.550662 -0.000000 0.000000 2.741255 -0.000001 0.000000 0.000002 0.086761 2.267467 8.921703 2.236102 -13.055352 -3.078183 0.000005 -0.000025 4.061107 -0.957433 -9.407251 -0.579751 -0.000041 -0.000028 3.654995 0.045675 -9.407084 -0.580260 -0.000003 0.000001 2.741231 0.000000 0.000000 -0.000000 -0.173496 4.467131 7.977020 11.205074 -9.465307 -7.106344 -0.000017 0.000030 3.350406 -1.902620 -7.548482 -1.476014 -0.000042 0.000029 2.842785 0.097375 -7.548678 -1.476012 0.000004 0.000004 2.639712 -0.000000 0.000000 -0.000002 -0.000018 -0.000060 0.000027 -0.000000 0.000001 -0.000001 0.000039 0.000012 -0.000002 -0.000002 -0.000001 0.000003 2.625395 0.000005 11.175251 -3.409115 82.124453 -0.089637 0.000008 0.000011 10.813660 -14.986431 71.984450 -30.544271 -0.000031 0.000015 28.724754 -27.467628 1.453076 63.290575 0.644318 0.328857 25.716156 17.465536 31.771458 -29.026337 2.867294 -2.944260 3.959541 -32.577038 13.119550 58.269430 -0.000004 -0.000011 3.350403 3.715615 -3.276697 -7.188192 0.000002 0.000017 3.756536 2.536222 -2.325390 -4.967867 -0.000010 0.000000 3.099995 -0.000001 0.000000 0.000003 0.086735 -2.345245 10.030884 -11.850380 -16.349574 24.005207 -0.000038 -0.000005 4.061081 0.543334 0.000046 0.000033 0.000002 0.000019 3.248863 0.042198 -0.000020 -0.000050 0.000014 -0.000001 2.639686 -0.000001 -0.000002 0.000003 -0.104141 -0.006771 9.502914 -7.361062 -19.505366 15.098891 -0.000024 0.000029 4.568728 0.526372 0.000165 -0.000012 -0.000006 0.000011 3.654987 0.024030 0.000010 0.000057 -0.000003 -0.000004 2.741259 0.000001 -0.000000 0.000001 -0.086767 2.267467 8.921707 0.868785 -21.686061 3.064612 -0.000001 0.000013 4.061090 -1.040208 0.000067 0.000002 -0.000015 0.000000 3.654989 -0.031842 -0.000027 -0.004625 0.000026 0.000002 2.741243 -0.000000 -0.000000 -0.000000 0.173485 4.467159 7.976997 9.905239 -19.925142 -7.957082 -0.000026 -0.000021 3.350413 -2.054820 0.000045 0.000024 0.000014 0.000028 2.842756 -0.046511 -0.000003 -0.009469 -0.000006 0.000007 2.639716 -0.000001 0.000000 -0.000001 0.000021 -0.000061 0.000013 -0.000000 -0.000000 0.000000 0.000010 -0.000017 -0.000004 0.000006 -0.000003 -0.000003 -11.289900 0.000053 0.000000 -18.877234 -7.749595 16.900741 0.000025 -0.000019 -38.200329 -0.689208 0.178071 14.486328 -0.000012 0.000002 -39.900860 -19.514580 8.891510 6.213345 -0.000014 -15.261653 0.000009 0.873405 0.070338 -13.770575 0.000004 -7.370716 0.000001 -0.000002 -0.000001 -0.000002 0.000002 -0.000046 0.000000 -0.000002 -0.000000 -0.000001 0.000001 0.000002 0.000000 -0.000001 -0.000000 0.000000 11.315686 -0.000006 -0.000015 -2.428393 -24.649144 7.433165 -0.000008 0.000011 -38.200306 1.319528 -0.533685 22.025091 0.000009 -0.000069 -39.900860 23.832876 11.822371 23.127391 -0.000027 -15.261702 0.000012 -0.381203 -3.449235 -15.562000 0.000015 -7.539978 -0.000001 -0.000000 0.000001 0.000001 -0.000005 -0.000082 -0.000000 0.000003 0.000002 -0.000000 0.000012 -0.000009 -0.000010 0.000001 0.000002 -0.000002 
-10.792175 -21.074707 85.555832 3.917355 5.552009 -15.084032 -0.000044 2.079985 8.814255 -0.048715 -4.468604 7.066702 -0.000054 -0.000080 8.844145 -0.158646 -0.362061 2.224499 -0.000034 -0.000001 11.682270 -0.647332 -2.429753 6.559718 -0.000041 0.000025 11.746704 0.645255 -3.511314 5.387479 -0.000004 0.000021 17.658295 -2.936470 9.511321 7.097398 -0.000002 0.000012 5.101524 -6.227516 4.225728 -1.978756 -0.000047 -0.000047 5.101550 -1.634195 0.909565 -21.921642 -0.000027 -0.000058 11.655116 -0.000000 -0.000000 -0.000001 -2.625389 -0.000025 11.175206 9.649140 -91.814360 -0.314372 -0.000008 0.000012 10.434711 10.744904 -41.908333 -2.041757 -0.000019 -0.000046 29.628426 38.040998 -0.764046 27.870915 0.000023 0.000061 22.857574 -13.412673 -17.531069 -12.373962 -2.867287 -2.944275 3.959526 31.586719 -17.619231 50.974573 -0.000015 -0.000053 3.350468 -13.456764 8.731341 -24.185266 -0.000015 -0.000057 3.756565 -8.945634 6.680273 -16.547325 0.000014 0.000002 3.147347 -0.000000 -0.000006 0.000001 -0.086773 -2.345266 10.030918 -11.906945 -16.218139 5.653179 0.000012 0.000023 4.061129 0.323748 -11.878496 1.694014 -0.000004 -0.000004 3.248888 -0.176242 -11.878684 1.694018 -0.000002 0.000009 2.639700 -0.000002 -0.000000 0.000002 0.104053 -0.006778 9.502978 -6.278804 -14.708906 1.069828 0.000000 0.000025 4.568733 0.456817 -10.470710 0.553552 -0.000027 0.000021 3.654974 -0.044014 -10.470745 0.553706 0.000022 0.000004 2.741235 -0.000000 -0.000001 0.000000 0.086723 2.267466 8.921684 2.218660 -13.160724 -3.070310 -0.000011 0.000021 4.061091 -0.957150 -9.481305 -0.584317 0.000021 0.000021 3.654979 0.045758 -9.481351 -0.584811 -0.000003 -0.000006 2.741256 -0.000000 0.000000 0.000002 -0.173489 4.467190 7.977028 11.183855 -9.583284 -7.196544 0.000006 -0.000003 3.350410 -1.898798 -7.642384 -1.494810 -0.000035 0.000027 2.842749 0.100486 -7.642669 -1.494605 -0.000002 -0.000002 2.639716 0.000000 0.000000 -0.000001 -0.000001 -0.000054 0.000032 -0.000000 -0.000002 -0.000000 0.000013 0.000002 -0.000001 -0.000000 0.000000 -0.000001 2.625414 0.000071 11.175263 -3.377336 82.195651 -0.093505 0.000015 0.000000 10.813656 -19.319224 70.881074 -34.819632 0.000000 0.000000 28.724840 -27.842344 1.525583 65.287422 0.644344 0.328857 25.716187 18.790414 31.830662 -29.467331 2.867325 -2.944244 3.959579 -32.577059 13.119582 58.269430 -0.000013 0.000027 3.350388 3.715645 -3.276714 -7.188203 0.000013 0.000017 3.756516 2.536220 -2.325384 -4.967865 0.000026 0.000001 3.099996 0.000000 0.000002 0.000001 0.086796 -2.345261 10.030922 -12.085599 -17.325164 24.327228 -0.000037 -0.000007 4.061075 0.548446 0.000097 0.000038 -0.000007 -0.000026 3.248863 0.047428 -0.000019 -0.000059 0.000013 0.000014 2.639726 -0.000002 -0.000001 0.000001 -0.104073 -0.006783 9.502968 -7.589107 -20.519316 15.435389 -0.000019 -0.000015 4.568728 0.529303 0.000292 -0.000009 0.000003 0.000005 3.654989 0.026731 0.000011 0.000094 0.000005 0.000003 2.741245 0.000000 -0.000005 0.000003 -0.086723 2.267431 8.921719 0.675094 -22.833596 3.318582 0.000041 -0.000012 4.061100 -1.044314 0.000040 0.000002 -0.000045 0.000027 3.654986 -0.035113 -0.000023 -0.005307 0.000002 0.000003 2.741243 -0.000000 0.000000 0.000000 0.173523 4.467195 7.977043 9.802158 -21.176228 -7.803939 -0.000001 0.000022 3.350407 -2.060087 0.149258 -0.005340 0.000026 0.000029 2.842757 -0.050973 -0.080792 -0.010472 0.000006 0.000005 2.639714 -0.000001 -0.000002 -0.000000 0.000031 -0.000059 0.000035 -0.000001 0.000001 0.000000 0.000011 -0.000013 0.000007 0.000001 0.000002 0.000001 -11.289934 0.000050 0.000027 -18.837339 -7.647605 17.226072 -0.000009 -0.000017 -38.200325 -0.674239 0.169756 14.091871 -0.000042 -0.000002 -39.900856 -19.510715 8.964180 6.391335 0.000001 -15.261680 0.000010 0.845596 0.122486 -13.889331 -0.000007 -7.370719 0.000002 -0.000001 0.000000 0.000000 0.000004 0.000000 0.000000 -0.000000 -0.000001 -0.000001 -0.000012 0.000002 -0.000006 -0.000000 0.000001 0.000000 11.315687 -0.000030 -0.000015 -2.405724 -24.574350 7.709741 0.000003 0.000009 -38.200310 1.346286 -0.537387 21.762562 0.000010 -0.000065 -39.900856 23.837553 11.719158 23.358919 -0.000032 -15.261703 0.000021 -0.406388 -3.443926 -15.709319 -0.000004 -7.540055 -0.000001 0.000003 -0.000001 0.000003 0.000000 -0.000017 0.000000 0.000003 0.000000 0.000000 -0.000004 -0.000008 -0.000005 0.000001 -0.000001 0.000000 
